# This file uses centimeters as units for non-parametric coordinates.

mtllib roofWallEdge.mtl
g default
v -21.738817 66.160107 -11.666924
v -21.738817 63.197309 -0.609569
v -21.738817 55.102760 7.484976
v -21.738817 44.045401 10.447786
v 21.738817 66.160107 -11.666924
v 21.738817 63.197309 -0.609569
v 21.738817 55.102760 7.484976
v 21.738817 44.045401 10.447786
v -21.738817 44.045401 -11.666924
v 21.738817 44.045401 -11.666924
v -21.738817 42.913840 12.287936
v 21.738817 42.913840 12.287936
v -21.738817 41.829184 11.342739
v 21.738817 41.829184 11.342739
v -21.738817 40.731344 12.579921
v 21.738817 40.731344 12.579921
v -21.738817 40.037184 12.579919
v 21.738817 40.037184 12.579919
v -21.738817 39.362148 10.413199
v 21.738817 39.362148 10.413199
vt 0.021522 0.509423
vt 0.101285 0.509423
vt 0.101285 0.823050
vt 0.021522 0.823050
vt 0.159675 0.509423
vt 0.159675 0.823050
vt 0.276109 0.823050
vt 0.276109 0.509423
vt 0.291739 0.509423
vt 0.291739 0.823050
vt 0.295528 0.509423
vt 0.455054 0.509423
vt 0.455054 0.823050
vt 0.295528 0.823050
vt 0.405680 0.904906
vt 0.384308 0.825143
vt 0.543833 0.825143
vt 0.464070 0.963296
vt 0.543833 0.984668
vt 0.221565 0.984668
vt 0.242938 0.904906
vt 0.381090 0.984668
vt 0.301328 0.846515
vt 0.381090 0.825143
vt 0.216242 0.850763
vt 0.202968 0.858926
vt 0.209423 0.842939
vt 0.202718 0.825143
vt 0.218348 0.830012
vt 0.218348 0.835020
vt 0.185978 0.850763
vt 0.192796 0.842939
vt 0.199252 0.858926
vt 0.199501 0.825143
vt 0.183872 0.830012
vt 0.183872 0.835020
vt 0.163686 0.509423
vt 0.243449 0.509423
vt 0.243449 0.823050
vt 0.163686 0.823050
vt 0.251612 0.509423
vt 0.251612 0.823050
vt 0.259436 0.509423
vt 0.259436 0.823050
vt 0.267355 0.509423
vt 0.267355 0.823050
vt 0.272362 0.509423
vt 0.272362 0.823050
vn 0.000000 0.965926 0.258818
vn 0.000000 0.965926 0.258818
vn 0.000000 0.965926 0.258818
vn 0.000000 0.965926 0.258818
vn 0.000000 0.707107 0.707107
vn 0.000000 0.707107 0.707107
vn 0.000000 0.707107 0.707107
vn 0.000000 0.707107 0.707107
vn 0.000000 0.258819 0.965926
vn 0.000000 0.258819 0.965926
vn 0.000000 0.258819 0.965926
vn 0.000000 0.258819 0.965926
vn -1.000000 0.000000 -0.000000
vn -1.000000 0.000000 0.000000
vn -1.000000 0.000000 -0.000000
vn -1.000000 0.000000 -0.000000
vn -1.000000 0.000000 0.000000
vn 1.000000 -0.000000 0.000000
vn 1.000000 -0.000000 0.000000
vn 1.000000 -0.000000 0.000000
vn 1.000000 -0.000000 0.000000
vn 1.000000 -0.000000 0.000000
vn 0.000000 0.851832 0.523816
vn 0.000000 0.851832 0.523816
vn 0.000000 0.851832 0.523816
vn 0.000000 0.851832 0.523816
vn -0.000000 -0.656977 0.753911
vn -0.000000 -0.656977 0.753911
vn -0.000000 -0.656977 0.753911
vn -0.000000 -0.656977 0.753911
vn 0.000000 0.747972 0.663730
vn 0.000000 0.747972 0.663730
vn 0.000000 0.747972 0.663730
vn 0.000000 0.747972 0.663730
vn -0.000000 -0.000001 1.000000
vn -0.000000 -0.000001 1.000000
vn -0.000000 -0.000001 1.000000
vn -0.000000 -0.000001 1.000000
vn -0.000000 -0.954738 0.297447
vn -0.000000 -0.954738 0.297447
vn -0.000000 -0.954738 0.297447
vn -0.000000 -0.954738 0.297447
vn -0.000000 -1.000000 0.000000
vn -0.000000 -1.000000 0.000000
vn -0.000000 -1.000000 0.000000
vn -0.000000 -1.000000 0.000000
vn -1.000000 0.000000 0.000002
vn -1.000000 0.000000 0.000002
vn -1.000000 0.000000 0.000002
vn -1.000000 0.000000 0.000000
vn -1.000000 0.000000 0.000000
vn -1.000000 0.000000 0.000000
vn -1.000000 0.000000 0.000000
vn -1.000000 0.000000 -0.000005
vn -1.000000 0.000000 -0.000005
vn -1.000000 0.000000 -0.000005
vn 1.000000 -0.000000 0.000002
vn 1.000000 -0.000000 0.000002
vn 1.000000 -0.000000 0.000002
vn 1.000000 -0.000000 0.000000
vn 1.000000 -0.000000 0.000000
vn 1.000000 -0.000000 0.000000
vn 1.000000 -0.000000 0.000000
vn 1.000000 -0.000000 -0.000002
vn 1.000000 -0.000000 -0.000002
vn 1.000000 -0.000000 -0.000002
s off
g RoofWallEdge
usemtl initialShadingGroup
f 1/1/1 2/2/2 6/3/3 5/4/4
f 2/2/5 3/5/6 7/6/7 6/3/8
f 3/37/9 4/38/10 8/39/11 7/40/12
s 1
f 2/15/13 1/16/14 9/17/15
f 3/18/16 2/15/13 9/17/15
f 4/19/17 3/18/16 9/17/15
s 2
f 5/20/18 6/21/19 10/22/20
f 6/21/19 7/23/21 10/22/20
f 7/23/21 8/24/22 10/22/20
s off
f 8/39/23 4/38/24 11/41/25 12/42/26
f 12/42/27 11/41/28 13/43/29 14/44/30
f 14/44/31 13/43/32 15/45/33 16/46/34
f 16/46/35 15/45/36 17/47/37 18/48/38
f 18/7/39 17/8/40 19/9/41 20/10/42
f 4/11/43 9/12/44 10/13/45 8/14/46
f 11/25/47 4/26/48 13/27/49
f 19/28/50 17/29/51 15/30/52 13/27/53
f 19/28/54 13/27/55 4/26/56
f 12/31/57 14/32/58 8/33/59
f 18/35/60 20/34/61 14/32/62 16/36/63
f 14/32/64 20/34/65 8/33/66
