# This file uses centimeters as units for non-parametric coordinates.

mtllib roofFillings.mtl
g default
v -21.738817 44.045410 10.274833
v 21.738815 44.045410 10.274833
v -21.738817 66.160110 10.274833
v 21.738815 66.160110 10.274833
v -21.738817 66.160110 -11.839877
v 21.738815 66.160110 -11.839877
v -21.738817 44.045410 -11.839877
v 21.738815 44.045410 -11.839877
vt 0.217768 0.366546
vt 0.217768 0.248507
vt 0.335807 0.248507
vt 0.335807 0.366546
vt 0.097018 0.366546
vt 0.097018 0.248507
vt 0.215056 0.248507
vt 0.215056 0.366546
vt 0.137873 0.246743
vt 0.137873 0.014678
vt 0.255911 0.014678
vt 0.255911 0.246743
vt 0.338519 0.480572
vt 0.338519 0.248507
vt 0.456558 0.248507
vt 0.456558 0.480572
vt 0.016326 0.246743
vt 0.016326 0.014678
vt 0.134365 0.014678
vt 0.134365 0.246743
vt 0.259333 0.246743
vt 0.259333 0.014678
vt 0.377372 0.014678
vt 0.377372 0.246743
vn 0.000000 0.000000 1.000000
vn 0.000000 0.000000 1.000000
vn 0.000000 0.000000 1.000000
vn 0.000000 0.000000 1.000000
vn 0.000000 1.000000 0.000000
vn 0.000000 1.000000 0.000000
vn 0.000000 1.000000 0.000000
vn 0.000000 1.000000 0.000000
vn 0.000000 0.000000 -1.000000
vn 0.000000 0.000000 -1.000000
vn 0.000000 0.000000 -1.000000
vn 0.000000 0.000000 -1.000000
vn 0.000000 -1.000000 0.000000
vn 0.000000 -1.000000 0.000000
vn 0.000000 -1.000000 0.000000
vn 0.000000 -1.000000 0.000000
vn 1.000000 0.000000 0.000000
vn 1.000000 0.000000 0.000000
vn 1.000000 0.000000 0.000000
vn 1.000000 0.000000 0.000000
vn -1.000000 0.000000 0.000000
vn -1.000000 0.000000 0.000000
vn -1.000000 0.000000 0.000000
vn -1.000000 0.000000 0.000000
s off
g RoofFillings
usemtl initialShadingGroup
f 1/17/1 2/18/2 4/19/3 3/20/4
f 3/9/5 4/10/6 6/11/7 5/12/8
f 5/21/9 6/22/10 8/23/11 7/24/12
f 7/13/13 8/14/14 2/15/15 1/16/16
f 2/1/17 8/2/18 6/3/19 4/4/20
f 7/5/21 1/6/22 3/7/23 5/8/24
