# This file uses centimeters as units for non-parametric coordinates.

mtllib wallFlat.mtl
g default
v -21.738852 0.567778 0.874134
v 21.738817 0.567778 0.874134
v -21.738852 2.727254 0.874134
v 21.738817 2.727254 0.874134
v -21.738852 4.963915 -0.125866
v 21.738817 4.963915 -0.125866
v -21.738852 0.567778 -0.125866
v 21.738817 0.567778 -0.125866
v -21.738852 2.187385 -0.125866
v -21.738852 2.187385 0.874134
v 21.738817 2.187385 0.874134
v 21.738817 2.187385 -0.125866
v -21.738852 1.107647 -0.125866
v -21.738852 1.107647 0.874134
v 21.738817 1.107647 0.874134
v 21.738817 1.107647 -0.125866
v -21.738852 2.115863 -0.125866
v -21.738852 2.115863 0.319323
v 21.738817 2.115863 0.319323
v 21.738817 2.115863 -0.125866
v -21.738852 1.179169 -0.125866
v -21.738852 1.179169 0.319323
v 21.738817 1.179169 0.319323
v 21.738817 1.179169 -0.125866
v -21.738850 0.567778 -0.125866
v 21.738815 0.567778 -0.125866
v -21.738850 44.045410 -0.125866
v 21.738815 44.045410 -0.125866
v -21.738850 44.045410 -1.125866
v 21.738815 44.045410 -1.125866
v -21.738850 0.567778 -1.125866
v 21.738815 0.567778 -1.125866
vt 0.208916 0.034313
vt 0.843671 0.034313
vt 0.843671 0.039902
vt 0.208916 0.039902
vt 0.843671 0.063057
vt 0.208916 0.063057
vt 0.208916 0.065596
vt 0.843671 0.065596
vt 0.843671 0.087952
vt 0.208916 0.087952
vt 0.820026 0.143203
vt 0.820026 0.165559
vt 0.779490 0.165559
vt 0.812144 0.143203
vt 0.820026 0.168805
vt 0.820026 0.191161
vt 0.812144 0.191161
vt 0.779490 0.168805
vt 0.821070 0.168805
vt 0.821070 0.178758
vt 0.843671 0.103602
vt 0.208916 0.103602
vt 0.208916 0.091198
vt 0.843671 0.091198
vt 0.821070 0.155606
vt 0.821070 0.165559
vt 0.843671 0.168805
vt 0.843671 0.191161
vt 0.835789 0.191161
vt 0.835789 0.168805
vt 0.208916 0.106400
vt 0.843672 0.106400
vt 0.843671 0.111989
vt 0.208916 0.111989
vt 0.843672 0.143203
vt 0.843671 0.165559
vt 0.835789 0.165559
vt 0.835790 0.143203
vt 0.834745 0.168805
vt 0.834745 0.178758
vt 0.843672 0.124897
vt 0.208916 0.124898
vt 0.208916 0.115201
vt 0.843671 0.115200
vt 0.834745 0.165559
vt 0.834745 0.155606
vt 0.843671 0.140405
vt 0.208916 0.140405
vt 0.208916 0.128002
vt 0.843671 0.128001
vt 0.375000 0.000000
vt 0.625000 0.000000
vt 0.625000 0.250000
vt 0.375000 0.250000
vt 0.625000 0.500000
vt 0.375000 0.500000
vt 0.625000 0.750000
vt 0.375000 0.750000
vt 0.625000 1.000000
vt 0.375000 1.000000
vt 0.875000 0.000000
vt 0.875000 0.250000
vt 0.125000 0.000000
vt 0.125000 0.250000
vn 0.000000 0.000000 1.000000
vn 0.000000 0.000000 1.000000
vn 0.000000 0.000000 1.000000
vn 0.000000 0.000000 1.000000
vn 0.000000 0.408158 0.912911
vn 0.000000 0.408158 0.912911
vn 0.000000 0.408158 0.912911
vn 0.000000 0.408158 0.912911
vn 0.000000 -1.000000 0.000000
vn 0.000000 -1.000000 0.000000
vn 0.000000 -1.000000 0.000000
vn 0.000000 -1.000000 0.000000
vn 1.000000 0.000000 0.000000
vn 1.000000 0.000000 0.000000
vn 1.000000 0.000000 0.000000
vn 1.000000 0.000000 0.000000
vn -1.000000 0.000000 0.000000
vn -1.000000 0.000000 0.000000
vn -1.000000 0.000000 0.000000
vn -1.000000 0.000000 0.000000
vn -1.000000 0.000000 0.000000
vn -1.000000 0.000000 0.000000
vn -1.000000 0.000000 0.000000
vn -1.000000 0.000000 0.000000
vn 0.000000 -0.991793 0.127855
vn 0.000000 -0.991793 0.127855
vn 0.000000 -0.991793 0.127855
vn 0.000000 -0.991793 0.127855
vn 1.000000 0.000000 0.000000
vn 1.000000 0.000000 0.000000
vn 1.000000 0.000000 0.000000
vn 1.000000 0.000000 0.000000
vn -1.000000 0.000000 0.000000
vn -1.000000 0.000000 0.000000
vn -1.000000 0.000000 0.000000
vn -1.000000 0.000000 0.000000
vn 0.000000 0.000000 1.000000
vn 0.000000 0.000000 1.000000
vn 0.000000 0.000000 1.000000
vn 0.000000 0.000000 1.000000
vn 1.000000 0.000000 0.000000
vn 1.000000 0.000000 0.000000
vn 1.000000 0.000000 0.000000
vn 1.000000 0.000000 0.000000
vn -1.000000 0.000000 0.000000
vn -1.000000 0.000000 0.000000
vn -1.000000 0.000000 0.000000
vn -1.000000 0.000000 0.000000
vn 0.000000 0.000000 1.000000
vn 0.000000 0.000000 1.000000
vn 0.000000 0.000000 1.000000
vn 0.000000 0.000000 1.000000
vn 1.000000 0.000000 0.000000
vn 1.000000 0.000000 0.000000
vn 1.000000 0.000000 0.000000
vn 1.000000 0.000000 0.000000
vn -1.000000 0.000000 0.000000
vn -1.000000 0.000000 0.000000
vn -1.000000 0.000000 0.000000
vn -1.000000 0.000000 0.000000
vn 0.000000 0.991793 0.127855
vn 0.000000 0.991793 0.127855
vn 0.000000 0.991793 0.127855
vn 0.000000 0.991793 0.127855
vn 1.000000 0.000000 0.000000
vn 1.000000 0.000000 0.000000
vn 1.000000 0.000000 0.000000
vn 1.000000 0.000000 0.000000
vn 0.000000 0.000000 1.000000
vn 0.000000 0.000000 1.000000
vn 0.000000 0.000000 1.000000
vn 0.000000 0.000000 1.000000
vn 0.000000 1.000000 0.000000
vn 0.000000 1.000000 0.000000
vn 0.000000 1.000000 0.000000
vn 0.000000 1.000000 0.000000
vn 0.000000 0.000000 -1.000000
vn 0.000000 0.000000 -1.000000
vn 0.000000 0.000000 -1.000000
vn 0.000000 0.000000 -1.000000
vn 0.000000 -1.000000 0.000000
vn 0.000000 -1.000000 0.000000
vn 0.000000 -1.000000 0.000000
vn 0.000000 -1.000000 0.000000
vn 1.000000 0.000000 0.000000
vn 1.000000 0.000000 0.000000
vn 1.000000 0.000000 0.000000
vn 1.000000 0.000000 0.000000
vn -1.000000 0.000000 0.000000
vn -1.000000 0.000000 0.000000
vn -1.000000 0.000000 0.000000
vn -1.000000 0.000000 0.000000
s off
g WallFlat
usemtl initialShadingGroup
f 10/1/1 11/2/2 4/3/3 3/4/4
f 3/4/5 4/3/6 6/5/7 5/6/8
f 7/7/9 8/8/10 2/9/11 1/10/12
f 11/11/13 12/12/14 6/13/15 4/14/16
f 9/15/17 10/16/18 3/17/19 5/18/20
f 10/16/21 9/15/22 17/19/23 18/20/24
f 11/21/25 10/22/26 18/23/27 19/24/28
f 19/25/29 20/26/30 12/12/31 11/11/32
f 7/27/33 1/28/34 14/29/35 13/30/36
f 1/31/37 2/32/38 15/33/39 14/34/40
f 2/35/41 8/36/42 16/37/43 15/38/44
f 18/20/45 17/19/46 21/39/47 22/40/48
f 19/41/49 18/42/50 22/43/51 23/44/52
f 24/45/53 20/26/54 19/25/55 23/46/56
f 22/40/57 21/39/58 13/30/59 14/29/60
f 23/47/61 22/48/62 14/49/63 15/50/64
f 16/37/65 24/45/66 23/46/67 15/38/68
f 25/51/69 26/52/70 28/53/71 27/54/72
f 27/54/73 28/53/74 30/55/75 29/56/76
f 29/56/77 30/55/78 32/57/79 31/58/80
f 31/58/81 32/57/82 26/59/83 25/60/84
f 26/52/85 32/61/86 30/62/87 28/53/88
f 31/63/89 25/51/90 27/54/91 29/64/92
