# This file uses centimeters as units for non-parametric coordinates.

mtllib wallCornerRound.mtl
g default
v 14.984421 0.567778 -10.433086
v 5.293581 0.567778 -16.028095
v -21.182298 0.567778 10.447784
v -15.587290 0.567778 20.138630
v -5.896443 0.567778 25.733642
v 5.293581 0.567778 25.733643
v 14.984420 0.567778 20.138629
v 20.579438 0.567778 10.447784
v 20.579438 0.567778 -0.742239
v 14.984421 44.045410 -10.433086
v 5.293581 44.045410 -16.028095
v -21.182298 44.045410 10.447784
v -15.587290 44.045410 20.138630
v -5.896443 44.045410 25.733642
v 5.293581 44.045410 25.733643
v 14.984420 44.045410 20.138629
v 20.579438 44.045410 10.447784
v 20.579438 44.045410 -0.742239
v -19.779445 44.045410 10.447784
v -14.560330 44.045410 19.111664
v -5.520547 44.045410 24.330787
v 4.917683 44.045410 24.330785
v 13.957461 44.045410 19.111665
v 19.176581 44.045410 10.071891
v 19.176583 44.045410 -0.366345
v 13.957464 44.045410 -9.406120
v 5.293577 44.045410 -14.625238
v -14.592190 44.045410 19.111663
v -5.512010 44.045410 24.330785
v 4.972871 44.045410 24.330783
v -19.779445 44.045410 9.046216
v -21.182299 44.045410 9.046216
v 13.439207 0.567778 -8.887868
v 5.293576 0.567778 -14.068837
v -19.779445 0.567778 10.447783
v -14.042071 0.567778 18.593409
v -5.330855 0.567778 23.622836
v 4.727989 0.567778 23.622836
v 13.439207 0.567778 18.593408
v 18.468629 0.567778 9.882193
v 18.468631 0.567778 -0.176654
v -21.182299 0.567778 9.046216
v -19.779446 0.567778 9.046215
v 4.293578 44.045410 -16.028097
v 4.293575 44.045410 -14.625241
v 4.293578 0.567778 -16.028098
v 4.293568 0.567778 -14.068840
vt 0.303752 0.001992
vt 0.385974 0.001992
vt 0.385974 0.332726
vt 0.303752 0.332726
vt 0.446164 0.001992
vt 0.446164 0.332726
vt 0.293454 0.001992
vt 0.293454 0.332726
vt 0.062064 0.001992
vt 0.144286 0.001992
vt 0.144286 0.332726
vt 0.062064 0.332726
vt 0.226508 0.001992
vt 0.226508 0.332726
vt 0.001873 0.001992
vt 0.001873 0.332726
vt 0.286699 0.001992
vt 0.286699 0.332726
vt 0.682288 0.001992
vt 0.753435 0.001992
vt 0.753435 0.332726
vt 0.679500 0.332726
vt 0.763734 0.001992
vt 0.763734 0.332726
vt 0.628181 0.001992
vt 0.679563 0.332726
vt 0.623337 0.332726
vt 0.731716 0.336479
vt 0.805626 0.336479
vt 0.805626 0.667213
vt 0.728928 0.667213
vt 0.879536 0.336479
vt 0.882324 0.667213
vt 0.677610 0.336479
vt 0.673521 0.667213
vt 0.933642 0.336479
vt 0.938471 0.667213
vt 0.478176 0.336479
vt 0.492572 0.336479
vt 0.488484 0.667213
vt 0.478176 0.667213
vt 0.300695 0.665367
vt 0.218474 0.643336
vt 0.223998 0.633768
vt 0.297933 0.655059
vt 0.158283 0.583145
vt 0.167851 0.577621
vt 0.308232 0.652300
vt 0.310994 0.662608
vt 0.136252 0.500923
vt 0.147300 0.500923
vt 0.158283 0.418702
vt 0.167851 0.424226
vt 0.147191 0.500518
vt 0.167834 0.577559
vt 0.218474 0.358511
vt 0.223998 0.368079
vt 0.300695 0.336480
vt 0.300695 0.347528
vt 0.382917 0.358511
vt 0.377393 0.368079
vt 0.443108 0.418702
vt 0.432800 0.421463
vt 0.445077 0.426049
vt 0.434768 0.428812
vt 0.317341 0.725330
vt 0.373488 0.669183
vt 0.373505 0.669121
vt 0.317278 0.725565
vt 0.003842 0.751342
vt 0.064032 0.691152
vt 0.072344 0.705548
vt 0.018238 0.755200
vt 0.146254 0.669120
vt 0.146254 0.685744
vt 0.016269 0.762548
vt 0.001873 0.758690
vt 0.228476 0.691152
vt 0.220165 0.705548
vt 0.288667 0.751342
vt 0.274270 0.759654
vt 0.310698 0.833564
vt 0.294075 0.833564
vt 0.288667 0.915786
vt 0.274270 0.907475
vt 0.228476 0.975977
vt 0.220165 0.961581
vt 0.146254 0.998008
vt 0.149016 0.987700
vt 0.135956 0.995249
vt 0.138718 0.984941
vt 0.452897 0.001992
vt 0.535119 0.001992
vt 0.535119 0.332726
vt 0.452897 0.332726
vt 0.617341 0.001992
vt 0.617341 0.332726
vt 0.664964 0.667212
vt 0.591054 0.667212
vt 0.591054 0.336480
vt 0.667752 0.336480
vt 0.517144 0.667212
vt 0.514419 0.336480
vt 0.591460 0.336480
vt 0.508650 0.667212
vt 0.498342 0.667212
vt 0.498342 0.336480
vt 0.508650 0.336480
vt 0.463964 0.336479
vt 0.471311 0.336479
vt 0.472407 0.667213
vt 0.465059 0.667213
vt 0.458194 0.667212
vt 0.450846 0.667212
vt 0.450846 0.336480
vt 0.458194 0.336480
vn 0.500000 0.000000 -0.866025
vn 0.500000 0.000000 -0.866025
vn 0.500000 0.000000 -0.866025
vn 0.500000 0.000000 -0.866025
vn -0.866026 0.000000 0.500000
vn -0.866026 0.000000 0.500000
vn -0.866026 0.000000 0.500000
vn -0.866026 0.000000 0.500000
vn -0.500000 0.000000 0.866025
vn -0.500000 0.000000 0.866025
vn -0.500000 0.000000 0.866025
vn -0.500000 0.000000 0.866025
vn -0.000000 0.000000 1.000000
vn -0.000000 0.000000 1.000000
vn -0.000000 0.000000 1.000000
vn -0.000000 0.000000 1.000000
vn 0.500000 0.000000 0.866025
vn 0.500000 0.000000 0.866025
vn 0.500000 0.000000 0.866025
vn 0.500000 0.000000 0.866025
vn 0.866025 0.000000 0.500000
vn 0.866025 0.000000 0.500000
vn 0.866025 0.000000 0.500000
vn 0.866025 0.000000 0.500000
vn 1.000000 0.000000 -0.000000
vn 1.000000 0.000000 -0.000000
vn 1.000000 0.000000 -0.000000
vn 1.000000 0.000000 -0.000000
vn 0.866025 0.000000 -0.500000
vn 0.866025 0.000000 -0.500000
vn 0.866025 0.000000 -0.500000
vn 0.866025 0.000000 -0.500000
vn -0.000000 1.000000 -0.000000
vn -0.000000 1.000000 -0.000000
vn -0.000000 1.000000 -0.000000
vn -0.000000 1.000000 -0.000000
vn -0.000000 1.000000 -0.000000
vn -0.000000 1.000000 -0.000000
vn -0.000000 1.000000 -0.000001
vn -0.000000 1.000000 -0.000001
vn -0.000000 1.000000 -0.000001
vn -0.000000 1.000000 -0.000001
vn -0.000000 1.000000 -0.000000
vn -0.000000 1.000000 -0.000000
vn -0.000000 1.000000 -0.000000
vn -0.000000 1.000000 -0.000000
vn -0.000000 1.000000 -0.000000
vn -0.000000 1.000000 -0.000000
vn -0.000000 1.000000 -0.000000
vn -0.000000 1.000000 -0.000000
vn 0.000000 1.000000 0.000000
vn 0.000000 1.000000 0.000000
vn -0.000017 -1.000000 -0.000065
vn -0.000017 -1.000000 -0.000065
vn -0.000017 -1.000000 -0.000065
vn -0.000017 -1.000000 -0.000065
vn 0.000000 0.000000 0.000000
vn 0.132716 0.858524 0.495301
vn 0.000000 0.000000 0.000000
vn 0.132716 0.858524 0.495301
vn 0.000000 -1.000000 0.000000
vn 0.000000 -1.000000 0.000000
vn 0.000000 -1.000000 0.000000
vn 0.000000 -1.000000 0.000000
vn 0.000000 -1.000000 0.000000
vn 0.000000 -1.000000 0.000000
vn 0.000000 -1.000000 0.000000
vn 0.000000 -1.000000 0.000000
vn 0.000000 -1.000000 0.000000
vn 0.000000 -1.000000 0.000000
vn 0.000000 -1.000000 0.000000
vn 0.000000 -1.000000 0.000000
vn 0.000000 -1.000000 0.000000
vn 0.000000 -1.000000 0.000000
vn 0.000000 -1.000000 0.000000
vn 0.000000 -1.000000 0.000000
vn 0.000000 -1.000000 0.000000
vn 0.000000 -1.000000 0.000000
vn 0.837724 0.008247 -0.546031
vn 0.837724 0.008247 -0.546031
vn 0.837724 0.008247 -0.546031
vn 0.837724 0.008247 -0.546031
vn -0.526093 0.013644 0.850317
vn -0.526093 0.013644 0.850317
vn -0.526093 0.013644 0.850317
vn -0.526093 0.013644 0.850317
vn -0.865911 0.016281 0.499934
vn -0.865911 0.016281 0.499934
vn -0.865911 0.016281 0.499934
vn -0.865911 0.016281 0.499934
vn -0.999867 0.016281 -0.000000
vn -0.999867 0.016281 -0.000000
vn -0.999867 0.016281 -0.000000
vn -0.999867 0.016281 -0.000000
vn -0.865911 0.016281 -0.499934
vn -0.865911 0.016281 -0.499934
vn -0.865911 0.016281 -0.499934
vn -0.865911 0.016281 -0.499934
vn -0.499934 0.016281 -0.865911
vn -0.499934 0.016281 -0.865911
vn -0.499934 0.016281 -0.865911
vn -0.499934 0.016281 -0.865911
vn -0.000000 0.016281 -0.999867
vn -0.000000 0.016281 -0.999867
vn -0.000000 0.016281 -0.999867
vn -0.000000 0.016281 -0.999867
vn -0.000000 0.016281 -0.999867
vn 0.499753 0.016418 -0.866013
vn 0.499753 0.016418 -0.866013
vn 0.499753 0.016418 -0.866013
vn 0.499753 0.016418 -0.866013
vn 0.499753 0.016418 -0.866013
vn 0.000000 -1.000000 0.000000
vn 0.000000 -1.000000 0.000000
vn 1.000000 0.000000 -0.000000
vn 1.000000 0.000000 -0.000000
vn 1.000000 0.000000 -0.000000
vn 1.000000 0.000000 -0.000000
vn -0.000000 0.000000 -1.000000
vn -0.000000 0.000000 -1.000000
vn -0.000000 0.000000 -1.000000
vn -0.000000 0.000000 -1.000000
vn -1.000000 0.000000 0.000000
vn -1.000000 0.000000 0.000000
vn -1.000000 0.000000 0.000000
vn -1.000000 0.000000 0.000000
vn 0.000000 1.000000 0.000000
vn 0.000000 1.000000 0.000000
vn 0.000000 -1.000000 0.000000
vn 0.000000 -1.000000 0.000000
vn -1.000000 0.000000 -0.000004
vn -1.000000 0.000000 -0.000004
vn -1.000000 0.000000 -0.000004
vn -1.000000 0.000000 -0.000004
vn -0.000004 0.012796 0.999918
vn -0.000004 0.012796 0.999918
vn -0.000004 0.012796 0.999918
vn -0.000004 0.012796 0.999918
vn 0.000003 0.000000 -1.000000
vn 0.000003 0.000000 -1.000000
vn 0.000003 0.000000 -1.000000
vn 0.000003 0.000000 -1.000000
s off
g WallCornerRound
usemtl initialShadingGroup
f 1/13/1 2/17/2 11/18/3 10/14/4
f 3/1/5 4/2/6 13/3/7 12/4/8
f 4/2/9 5/5/10 14/6/11 13/3/12
f 5/92/13 6/93/14 15/94/15 14/95/16
f 6/93/17 7/96/18 16/97/19 15/94/20
f 7/15/21 8/9/22 17/12/23 16/16/24
f 8/9/25 9/10/26 18/11/27 17/12/28
f 9/10/29 1/13/30 10/14/31 18/11/32
s 1
f 12/42/33 13/43/34 20/44/35 19/45/36
f 13/43/34 14/46/37 21/47/38 20/44/35
f 14/46/37 15/50/39 22/51/40 21/47/38
f 15/50/39 16/52/41 23/53/42 22/51/40
f 16/52/41 17/56/43 24/57/44 23/53/42
f 17/56/43 18/58/45 25/59/46 24/57/44
f 18/58/45 10/60/47 26/61/48 25/59/46
f 10/60/47 11/62/49 27/63/50 26/61/48
f 31/48/51 32/49/52 12/42/33 19/45/36
s off
f 20/66/53 21/67/54 29/68/55 28/69/56
f 21/47/57 22/51/58 30/54/59 29/55/60
s 2
f 2/70/61 1/71/62 33/72/63 34/73/64
f 4/86/65 3/88/66 35/89/67 36/87/68
f 5/84/69 4/86/65 36/87/68 37/85/70
f 6/82/71 5/84/69 37/85/70 38/83/72
f 7/80/73 6/82/71 38/83/72 39/81/74
f 8/78/75 7/80/73 39/81/74 40/79/76
f 9/74/77 8/78/75 40/79/76 41/75/78
f 1/71/62 9/74/77 41/75/78 33/72/63
s off
f 36/19/79 35/20/80 19/21/81 20/22/82
f 34/34/83 33/28/84 26/31/85 27/35/86
f 33/28/87 41/29/88 25/30/89 26/31/90
f 41/29/91 40/32/92 24/33/93 25/30/94
f 40/32/95 39/36/96 23/37/97 24/33/98
f 39/98/99 38/99/100 22/100/101 23/101/102
f 22/100/103 38/99/104 37/102/105 29/103/106 30/104/107
f 37/25/108 36/19/109 20/22/110 28/26/111 29/27/112
s 2
f 35/89/67 3/88/66 42/90/113 43/91/114
s off
f 35/20/115 43/23/116 31/24/117 19/21/118
f 43/105/119 42/106/120 32/107/121 31/108/122
f 42/7/123 3/1/124 12/4/125 32/8/126
s 1
f 27/63/50 11/62/49 44/64/127 45/65/128
s 2
f 2/70/61 34/73/64 47/76/129 46/77/130
s off
f 46/38/131 47/39/132 45/40/133 44/41/134
f 47/109/135 34/110/136 27/111/137 45/112/138
f 2/113/139 46/114/140 44/115/141 11/116/142
