# This file uses centimeters as units for non-parametric coordinates.

mtllib obj_Table.mtl
g default
v -12.454017 -0.010199 3.717366
v -12.660382 -0.010199 3.717366
v -12.763566 -0.010199 3.896084
v -12.660382 -0.010199 4.074803
v -12.454017 -0.010199 4.074803
v -12.350833 -0.010199 3.896084
v -12.454017 9.047909 3.717366
v -12.660382 9.047909 3.717366
v -12.763566 9.047909 3.896084
v -12.660382 9.047909 4.074803
v -12.454017 9.047909 4.074803
v -12.350833 9.047909 3.896084
v -12.557199 -0.010199 3.896084
v -12.557199 9.047909 3.896084
v -12.575165 9.387712 6.574712
v 12.575165 9.387712 6.574712
v -12.575165 9.826694 6.574712
v 12.575165 9.826694 6.574712
v -12.575165 9.826694 -6.574712
v 12.575165 9.826694 -6.574712
v -12.575165 9.387712 -6.574712
v 12.575165 9.387712 -6.574712
v 0.000000 9.387712 6.574712
v 0.000000 9.387712 -6.574712
v 0.000000 9.826694 -6.574712
v 0.000000 9.826694 6.574712
v -11.317648 9.387712 6.574712
v -11.317648 9.387712 -6.574712
v -11.317648 9.826694 -6.574712
v -11.317648 9.826694 6.574712
v 11.317648 9.387712 6.574712
v 11.317648 9.826694 6.574712
v 11.317648 9.826694 -6.574712
v 11.317648 9.387712 -6.574712
v -13.796593 9.826694 5.259769
v -11.317648 9.826694 5.259769
v 0.000000 9.826694 5.259769
v 11.317647 9.826694 5.259769
v 13.796593 9.826694 5.259769
v 13.796593 9.387712 5.259769
v 11.317648 9.387712 5.259769
v 0.000000 9.387712 5.259769
v -11.317647 9.387712 5.259769
v -13.796593 9.387712 5.259769
v -13.796593 9.387712 -5.391264
v -11.317648 9.387712 -5.391263
v 0.000000 9.387712 -5.391263
v 11.317647 9.387712 -5.391264
v 13.796593 9.387712 -5.391264
v 13.796593 9.826694 -5.391263
v 11.317648 9.826694 -5.391263
v 0.000000 9.826694 -5.391264
v -11.317647 9.826694 -5.391264
v -13.796593 9.826694 -5.391263
v -12.854546 9.043926 4.317136
v 12.854546 9.043926 4.317136
v -12.854546 9.476141 4.317136
v 12.854546 9.476141 4.317136
v -12.854546 9.476141 -4.317136
v 12.854546 9.476141 -4.317136
v -12.854546 9.043926 -4.317136
v 12.854546 9.043926 -4.317136
v -10.283637 9.043926 4.317136
v -10.283637 9.043926 -4.317136
v -10.283637 9.476141 -4.317136
v -10.283637 9.476141 4.317136
v 10.283637 9.043926 4.317136
v 10.283637 9.476141 4.317136
v 10.283637 9.476141 -4.317136
v 10.283637 9.043926 -4.317136
v -12.854546 9.476141 -3.453708
v -12.347427 9.476141 -3.453708
v 12.347428 9.476141 -3.453708
v 12.854546 9.476141 -3.453708
v 12.854546 9.043926 -3.453708
v 12.347427 9.043926 -3.453708
v -12.347428 9.043926 -3.453708
v -12.854546 9.043926 -3.453708
v -12.854546 9.476141 3.540051
v -12.347427 9.476141 3.540051
v 12.347427 9.476141 3.540051
v 12.854546 9.476141 3.540051
v 12.854546 9.043926 3.540051
v 12.347427 9.043926 3.540051
v -12.347427 9.043926 3.540051
v -12.854546 9.043926 3.540051
v -12.454017 -0.010199 -4.074718
v -12.660382 -0.010199 -4.074718
v -12.763566 -0.010199 -3.896000
v -12.660382 -0.010199 -3.717281
v -12.454017 -0.010199 -3.717281
v -12.350833 -0.010199 -3.896000
v -12.454017 9.047909 -4.074718
v -12.660382 9.047909 -4.074718
v -12.763566 9.047909 -3.896000
v -12.660382 9.047909 -3.717281
v -12.454017 9.047909 -3.717281
v -12.350833 9.047909 -3.896000
v -12.557199 -0.010199 -3.896000
v -12.557199 9.047909 -3.896000
v 12.660183 -0.010199 3.717366
v 12.453817 -0.010199 3.717366
v 12.350634 -0.010199 3.896084
v 12.453817 -0.010199 4.074803
v 12.660183 -0.010199 4.074803
v 12.763367 -0.010199 3.896084
v 12.660183 9.047909 3.717366
v 12.453817 9.047909 3.717366
v 12.350634 9.047909 3.896084
v 12.453817 9.047909 4.074803
v 12.660183 9.047909 4.074803
v 12.763367 9.047909 3.896084
v 12.557000 -0.010199 3.896084
v 12.557000 9.047909 3.896084
v 12.660183 -0.010199 -4.074718
v 12.453817 -0.010199 -4.074718
v 12.350634 -0.010199 -3.896000
v 12.453817 -0.010199 -3.717281
v 12.660183 -0.010199 -3.717281
v 12.763367 -0.010199 -3.896000
v 12.660183 9.047909 -4.074718
v 12.453817 9.047909 -4.074718
v 12.350634 9.047909 -3.896000
v 12.453817 9.047909 -3.717281
v 12.660183 9.047909 -3.717281
v 12.763367 9.047909 -3.896000
v 12.557000 -0.010199 -3.896000
v 12.557000 9.047909 -3.896000
vt 0.578125 0.020934
vt 0.421875 0.020934
vt 0.343750 0.156250
vt 0.421875 0.291566
vt 0.578125 0.291566
vt 0.656250 0.156250
vt 0.375000 0.312500
vt 0.416667 0.312500
vt 0.458333 0.312500
vt 0.500000 0.312500
vt 0.541667 0.312500
vt 0.583333 0.312500
vt 0.625000 0.312500
vt 0.375000 0.688440
vt 0.416667 0.688440
vt 0.458333 0.688440
vt 0.500000 0.688440
vt 0.541667 0.688440
vt 0.583333 0.688440
vt 0.625000 0.688440
vt 0.578125 0.708434
vt 0.421875 0.708434
vt 0.343750 0.843750
vt 0.421875 0.979066
vt 0.578125 0.979066
vt 0.656250 0.843750
vt 0.500000 0.150000
vt 0.500000 0.837500
vt 0.500000 0.250000
vt 0.500000 0.000000
vt 0.612500 0.000000
vt 0.612500 0.250000
vt 0.612500 0.477500
vt 0.500000 0.477500
vt 0.500000 0.275000
vt 0.612500 0.275000
vt 0.500000 0.750000
vt 0.500000 0.500000
vt 0.612500 0.500000
vt 0.612500 0.750000
vt 0.612500 0.975000
vt 0.500000 0.975000
vt 0.500000 0.772500
vt 0.612500 0.772500
vt 0.650000 0.250000
vt 0.650000 0.000000
vt 0.852500 0.000000
vt 0.852500 0.250000
vt 0.147500 0.250000
vt 0.147500 0.000000
vt 0.350000 0.000000
vt 0.350000 0.250000
vt 0.387500 0.975000
vt 0.387500 0.772500
vt 0.387500 0.750000
vt 0.387500 0.500000
vt 0.387500 0.477500
vt 0.387500 0.275000
vt 0.387500 0.250000
vt 0.387500 0.000000
vt 0.375000 0.772500
vt 0.375000 0.975000
vt 0.375000 0.500000
vt 0.375000 0.750000
vt 0.375000 0.275000
vt 0.375000 0.477500
vt 0.375000 0.000000
vt 0.375000 0.250000
vt 0.625000 0.000000
vt 0.625000 0.250000
vt 0.625000 0.477500
vt 0.625000 0.275000
vt 0.625000 0.500000
vt 0.625000 0.750000
vt 0.625000 0.975000
vt 0.625000 0.772500
vt 0.612500 1.000000
vt 0.625000 1.000000
vt 0.500000 1.000000
vt 0.387500 1.000000
vt 0.375000 1.000000
vt 0.875000 0.000000
vt 0.875000 0.250000
vt 0.125000 0.000000
vt 0.125000 0.250000
vt 0.600000 0.000000
vt 0.600000 0.250000
vt 0.400000 0.250000
vt 0.400000 0.000000
vt 0.400000 0.475000
vt 0.600000 0.475000
vt 0.600000 0.500000
vt 0.400000 0.500000
vt 0.600000 0.750000
vt 0.400000 0.750000
vt 0.600000 0.775000
vt 0.400000 0.775000
vt 0.850000 0.250000
vt 0.850000 0.000000
vt 0.875000 0.000000
vt 0.875000 0.250000
vt 0.125000 0.000000
vt 0.150000 0.000000
vt 0.150000 0.250000
vt 0.125000 0.250000
vt 0.375000 0.750000
vt 0.375000 0.775000
vt 0.375000 0.500000
vt 0.375000 0.475000
vt 0.375000 0.000000
vt 0.375000 0.250000
vt 0.625000 0.000000
vt 0.625000 0.250000
vt 0.625000 0.475000
vt 0.625000 0.500000
vt 0.625000 0.750000
vt 0.625000 0.775000
vt 0.375000 0.272500
vt 0.400000 0.272500
vt 0.600000 0.272500
vt 0.625000 0.272500
vt 0.647500 0.250000
vt 0.647500 0.000000
vt 0.625000 0.977500
vt 0.600000 0.977500
vt 0.400000 0.977500
vt 0.375000 0.977500
vt 0.352500 0.000000
vt 0.352500 0.250000
vt 0.600000 1.000000
vt 0.625000 1.000000
vt 0.400000 1.000000
vt 0.375000 1.000000
vt 0.000000 1.000000
vt 0.800000 1.000000
vt 0.800000 0.000000
vt 0.000000 0.000000
vt 0.000000 1.000000
vt 0.810000 1.000000
vt 0.810000 0.000000
vt 0.000000 0.000000
vt 0.000000 0.000000
vt 0.800000 0.000000
vt 0.800000 1.000000
vt 0.000000 1.000000
vt 0.000000 1.000000
vt 0.810000 1.000000
vt 0.810000 0.000000
vt 0.000000 0.000000
vt 0.375000 0.312500
vt 0.416667 0.312500
vt 0.416667 0.688440
vt 0.375000 0.688440
vt 0.458333 0.312500
vt 0.458333 0.688440
vt 0.500000 0.312500
vt 0.500000 0.688440
vt 0.541667 0.312500
vt 0.541667 0.688440
vt 0.583333 0.312500
vt 0.583333 0.688440
vt 0.625000 0.312500
vt 0.625000 0.688440
vt 0.421875 0.020934
vt 0.578125 0.020934
vt 0.500000 0.150000
vt 0.343750 0.156250
vt 0.421875 0.291566
vt 0.578125 0.291566
vt 0.656250 0.156250
vt 0.578125 0.979066
vt 0.421875 0.979066
vt 0.500000 0.837500
vt 0.343750 0.843750
vt 0.421875 0.708434
vt 0.578125 0.708434
vt 0.656250 0.843750
vt 0.375000 0.312500
vt 0.416667 0.312500
vt 0.416667 0.688440
vt 0.375000 0.688440
vt 0.458333 0.312500
vt 0.458333 0.688440
vt 0.500000 0.312500
vt 0.500000 0.688440
vt 0.541667 0.312500
vt 0.541667 0.688440
vt 0.583333 0.312500
vt 0.583333 0.688440
vt 0.625000 0.312500
vt 0.625000 0.688440
vt 0.421875 0.020934
vt 0.578125 0.020934
vt 0.500000 0.150000
vt 0.343750 0.156250
vt 0.421875 0.291566
vt 0.578125 0.291566
vt 0.656250 0.156250
vt 0.578125 0.979066
vt 0.421875 0.979066
vt 0.500000 0.837500
vt 0.343750 0.843750
vt 0.421875 0.708434
vt 0.578125 0.708434
vt 0.656250 0.843750
vt 0.375000 0.312500
vt 0.416667 0.312500
vt 0.416667 0.688440
vt 0.375000 0.688440
vt 0.458333 0.312500
vt 0.458333 0.688440
vt 0.500000 0.312500
vt 0.500000 0.688440
vt 0.541667 0.312500
vt 0.541667 0.688440
vt 0.583333 0.312500
vt 0.583333 0.688440
vt 0.625000 0.312500
vt 0.625000 0.688440
vt 0.421875 0.020934
vt 0.578125 0.020934
vt 0.500000 0.150000
vt 0.343750 0.156250
vt 0.421875 0.291566
vt 0.578125 0.291566
vt 0.656250 0.156250
vt 0.578125 0.979066
vt 0.421875 0.979066
vt 0.500000 0.837500
vt 0.343750 0.843750
vt 0.421875 0.708434
vt 0.578125 0.708434
vt 0.656250 0.843750
vn 0.000000 0.000000 -1.000000
vn 0.000000 0.000000 -1.000000
vn 0.000000 0.000000 -1.000000
vn 0.000000 0.000000 -1.000000
vn -0.866024 0.000000 -0.500002
vn -0.866024 0.000000 -0.500002
vn -0.866024 0.000000 -0.500002
vn -0.866024 0.000000 -0.500002
vn -0.866025 0.000000 0.500001
vn -0.866025 0.000000 0.500001
vn -0.866025 0.000000 0.500001
vn -0.866025 0.000000 0.500001
vn 0.000000 0.000000 1.000000
vn 0.000000 0.000000 1.000000
vn 0.000000 0.000000 1.000000
vn 0.000000 0.000000 1.000000
vn 0.866025 0.000000 0.500001
vn 0.866025 0.000000 0.500001
vn 0.866025 0.000000 0.500001
vn 0.866025 0.000000 0.500001
vn 0.866024 0.000000 -0.500002
vn 0.866024 0.000000 -0.500002
vn 0.866024 0.000000 -0.500002
vn 0.866024 0.000000 -0.500002
vn 0.000000 -1.000000 -0.000000
vn 0.000000 -1.000000 -0.000000
vn 0.000000 -1.000000 0.000000
vn 0.000000 -1.000000 -0.000000
vn 0.000000 -1.000000 0.000000
vn 0.000000 -1.000000 0.000000
vn 0.000000 -1.000000 0.000000
vn 0.000000 1.000000 0.000000
vn 0.000000 1.000000 0.000002
vn 0.000000 1.000000 0.000000
vn 0.000000 1.000000 0.000002
vn 0.000000 1.000000 0.000000
vn 0.000000 1.000000 -0.000002
vn 0.000000 1.000000 -0.000002
vn 0.000000 0.000000 1.000000
vn 0.000000 0.000000 1.000000
vn 0.000000 0.000000 1.000000
vn 0.000000 0.000000 1.000000
vn 0.000000 1.000000 -0.000000
vn 0.000000 1.000000 -0.000000
vn 0.000000 1.000000 -0.000000
vn 0.000000 1.000000 0.000000
vn 0.000000 0.000000 -1.000000
vn 0.000000 0.000000 -1.000000
vn 0.000000 0.000000 -1.000000
vn 0.000000 0.000000 -1.000000
vn 0.000000 -1.000000 -0.000000
vn 0.000000 -1.000000 -0.000000
vn 0.000000 -1.000000 0.000000
vn 0.000000 -1.000000 0.000000
vn 0.994831 0.000000 0.101547
vn 0.994831 0.000000 0.101547
vn 0.994716 0.000000 -0.102664
vn 0.994716 0.000000 -0.102664
vn -0.994716 0.000000 -0.102664
vn -0.994716 0.000000 -0.102664
vn -0.994831 0.000000 0.101547
vn -0.994831 0.000000 0.101547
vn 0.000000 -1.000000 0.000000
vn 0.000000 -1.000000 0.000000
vn 0.000000 0.000000 -1.000000
vn 0.000000 0.000000 -1.000000
vn 0.000000 1.000000 0.000000
vn 0.000000 1.000000 0.000000
vn 0.000000 0.000000 1.000000
vn 0.000000 0.000000 1.000000
vn 0.000000 -1.000000 0.000000
vn 0.000000 -1.000000 0.000000
vn 0.000000 0.000000 -1.000000
vn 0.000000 0.000000 -1.000000
vn 0.000000 1.000000 0.000000
vn 0.000000 1.000000 0.000000
vn 0.000000 0.000000 1.000000
vn 0.000000 0.000000 1.000000
vn 0.000000 0.000000 1.000000
vn 0.000000 0.000000 1.000000
vn 0.000000 1.000000 0.000000
vn 0.000000 1.000000 0.000000
vn 0.000000 0.000000 -1.000000
vn 0.000000 0.000000 -1.000000
vn 0.000000 -1.000000 0.000000
vn 0.000000 -1.000000 0.000000
vn 0.000000 1.000000 0.000000
vn 0.000000 1.000000 0.000000
vn 0.000000 1.000000 0.000000
vn 0.000000 1.000000 0.000000
vn 0.000000 1.000000 0.000000
vn 0.732679 0.000000 0.680574
vn 0.732679 0.000000 0.680574
vn 0.000000 -1.000000 0.000000
vn 0.000000 -1.000000 0.000000
vn 0.000000 -1.000000 0.000000
vn 0.000000 -1.000000 0.000000
vn 0.000000 -1.000000 0.000000
vn -0.732679 0.000000 0.680574
vn -0.732679 0.000000 0.680574
vn 0.000000 -1.000000 0.000000
vn 0.000000 -1.000000 0.000000
vn 0.000000 -1.000000 0.000000
vn 0.000000 -1.000000 0.000000
vn 0.000000 -1.000000 0.000000
vn 0.695853 0.000000 -0.718185
vn 0.695853 0.000000 -0.718185
vn 0.000000 1.000000 0.000000
vn 0.000000 1.000000 0.000000
vn 0.000000 1.000000 0.000000
vn 0.000000 1.000000 0.000000
vn 0.000000 1.000000 0.000000
vn -0.695853 0.000000 -0.718185
vn -0.695853 0.000000 -0.718185
vn 0.000000 0.000000 1.000000
vn 0.000000 0.000000 1.000000
vn 0.000000 0.000000 1.000000
vn 0.000000 0.000000 1.000000
vn 0.195258 0.697514 0.689456
vn -0.195259 0.697514 0.689455
vn 0.000000 1.000000 0.000000
vn 0.000000 1.000000 0.000000
vn 0.000000 0.000000 -1.000000
vn 0.000000 0.000000 -1.000000
vn 0.000000 0.000000 -1.000000
vn 0.000000 0.000000 -1.000000
vn 0.000000 -1.000000 -0.000001
vn 0.000000 -1.000000 -0.000001
vn -0.195258 -0.697513 0.689456
vn 0.195259 -0.697514 0.689455
vn 1.000000 -0.000002 0.000000
vn 1.000000 -0.000002 0.000000
vn 1.000000 0.000000 0.000000
vn 1.000000 0.000000 0.000000
vn -1.000000 0.000000 0.000000
vn -1.000000 -0.000002 0.000000
vn -1.000000 -0.000002 0.000000
vn -1.000000 0.000000 0.000000
vn 0.000000 -1.000000 -0.000001
vn 0.000000 -1.000000 -0.000000
vn 0.000000 0.000000 -1.000000
vn 0.000000 0.000000 -1.000000
vn 0.000000 1.000000 -0.000000
vn 0.000000 1.000000 -0.000001
vn 0.000000 0.000000 1.000000
vn 0.000000 0.000000 1.000000
vn 0.000000 0.000000 1.000000
vn 0.000000 0.000000 1.000000
vn 0.000000 1.000000 -0.000000
vn 0.000000 1.000000 -0.000001
vn 0.000000 0.000000 -1.000000
vn 0.000000 0.000000 -1.000000
vn 0.000000 -1.000000 0.000000
vn 0.000000 -1.000000 0.000000
vn 0.000000 1.000000 0.000000
vn 0.205166 0.658101 -0.724438
vn -0.205166 0.658101 -0.724438
vn 0.000000 1.000000 0.000000
vn 1.000000 -0.000002 0.000000
vn 1.000000 -0.000002 0.000000
vn 0.000000 -1.000000 0.000000
vn -0.205166 -0.658101 -0.724438
vn 0.205166 -0.658101 -0.724438
vn 0.000000 -1.000000 0.000000
vn -1.000000 -0.000002 0.000000
vn -1.000000 -0.000002 0.000000
vn 0.000000 1.000000 0.000001
vn 0.000000 1.000000 0.000001
vn 0.000000 1.000000 0.000001
vn 0.000000 1.000000 0.000002
vn 1.000000 0.000003 0.000000
vn 1.000000 0.000003 0.000000
vn 0.000000 -1.000000 0.000000
vn 0.000000 -1.000000 0.000000
vn 0.000000 -1.000000 0.000000
vn 0.000000 -1.000000 0.000000
vn -1.000000 0.000003 0.000000
vn -1.000000 0.000003 0.000000
vn 0.000000 0.000000 -1.000000
vn 0.000000 0.000000 -1.000000
vn 0.000000 0.000000 -1.000000
vn 0.000000 0.000000 -1.000000
vn -0.866024 0.000000 -0.500002
vn -0.866024 0.000000 -0.500002
vn -0.866024 0.000000 -0.500002
vn -0.866024 0.000000 -0.500002
vn -0.866025 0.000000 0.500001
vn -0.866025 0.000000 0.500001
vn -0.866025 0.000000 0.500001
vn -0.866025 0.000000 0.500001
vn 0.000000 0.000000 1.000000
vn 0.000000 0.000000 1.000000
vn 0.000000 0.000000 1.000000
vn 0.000000 0.000000 1.000000
vn 0.866025 0.000000 0.500001
vn 0.866025 0.000000 0.500001
vn 0.866025 0.000000 0.500001
vn 0.866025 0.000000 0.500001
vn 0.866024 0.000000 -0.500002
vn 0.866024 0.000000 -0.500002
vn 0.866024 0.000000 -0.500002
vn 0.866024 0.000000 -0.500002
vn 0.000000 -1.000000 -0.000000
vn 0.000000 -1.000000 -0.000000
vn 0.000000 -1.000000 0.000000
vn 0.000000 -1.000000 -0.000000
vn 0.000000 -1.000000 0.000000
vn 0.000000 -1.000000 0.000000
vn 0.000000 -1.000000 0.000000
vn 0.000000 1.000000 0.000000
vn 0.000000 1.000000 0.000002
vn 0.000000 1.000000 0.000000
vn 0.000000 1.000000 0.000002
vn 0.000000 1.000000 0.000000
vn 0.000000 1.000000 -0.000002
vn 0.000000 1.000000 -0.000002
vn 0.000000 0.000000 -1.000000
vn 0.000000 0.000000 -1.000000
vn 0.000000 0.000000 -1.000000
vn 0.000000 0.000000 -1.000000
vn -0.866024 0.000000 -0.500002
vn -0.866024 0.000000 -0.500002
vn -0.866024 0.000000 -0.500002
vn -0.866024 0.000000 -0.500002
vn -0.866025 0.000000 0.500001
vn -0.866025 0.000000 0.500001
vn -0.866025 0.000000 0.500001
vn -0.866025 0.000000 0.500001
vn 0.000000 0.000000 1.000000
vn 0.000000 0.000000 1.000000
vn 0.000000 0.000000 1.000000
vn 0.000000 0.000000 1.000000
vn 0.866025 0.000000 0.500001
vn 0.866025 0.000000 0.500001
vn 0.866025 0.000000 0.500001
vn 0.866025 0.000000 0.500001
vn 0.866024 0.000000 -0.500002
vn 0.866024 0.000000 -0.500002
vn 0.866024 0.000000 -0.500002
vn 0.866024 0.000000 -0.500002
vn 0.000000 -1.000000 -0.000000
vn 0.000000 -1.000000 -0.000000
vn 0.000000 -1.000000 0.000000
vn 0.000000 -1.000000 -0.000000
vn 0.000000 -1.000000 0.000000
vn 0.000000 -1.000000 0.000000
vn 0.000000 -1.000000 0.000000
vn 0.000000 1.000000 0.000000
vn 0.000000 1.000000 0.000002
vn 0.000000 1.000000 0.000000
vn 0.000000 1.000000 0.000002
vn 0.000000 1.000000 0.000000
vn 0.000000 1.000000 -0.000002
vn 0.000000 1.000000 -0.000002
vn 0.000000 0.000000 -1.000000
vn 0.000000 0.000000 -1.000000
vn 0.000000 0.000000 -1.000000
vn 0.000000 0.000000 -1.000000
vn -0.866024 0.000000 -0.500002
vn -0.866024 0.000000 -0.500002
vn -0.866024 0.000000 -0.500002
vn -0.866024 0.000000 -0.500002
vn -0.866025 0.000000 0.500001
vn -0.866025 0.000000 0.500001
vn -0.866025 0.000000 0.500001
vn -0.866025 0.000000 0.500001
vn 0.000000 0.000000 1.000000
vn 0.000000 0.000000 1.000000
vn 0.000000 0.000000 1.000000
vn 0.000000 0.000000 1.000000
vn 0.866025 0.000000 0.500001
vn 0.866025 0.000000 0.500001
vn 0.866025 0.000000 0.500001
vn 0.866025 0.000000 0.500001
vn 0.866024 0.000000 -0.500002
vn 0.866024 0.000000 -0.500002
vn 0.866024 0.000000 -0.500002
vn 0.866024 0.000000 -0.500002
vn 0.000000 -1.000000 -0.000000
vn 0.000000 -1.000000 -0.000000
vn 0.000000 -1.000000 0.000000
vn 0.000000 -1.000000 -0.000000
vn 0.000000 -1.000000 0.000000
vn 0.000000 -1.000000 0.000000
vn 0.000000 -1.000000 0.000000
vn 0.000000 1.000000 0.000000
vn 0.000000 1.000000 0.000002
vn 0.000000 1.000000 0.000000
vn 0.000000 1.000000 0.000002
vn 0.000000 1.000000 0.000000
vn 0.000000 1.000000 -0.000002
vn 0.000000 1.000000 -0.000002
s off
g obj_Table
usemtl initialShadingGroup
f 1/7/1 2/8/2 8/15/3 7/14/4
f 2/8/5 3/9/6 9/16/7 8/15/8
f 3/9/9 4/10/10 10/17/11 9/16/12
f 4/10/13 5/11/14 11/18/15 10/17/16
f 5/11/17 6/12/18 12/19/19 11/18/20
f 6/12/21 1/13/22 7/20/23 12/19/24
s 1
f 2/2/25 1/1/26 13/27/27
f 3/3/28 2/2/25 13/27/27
f 4/4/29 3/3/28 13/27/27
f 5/5/30 4/4/29 13/27/27
f 6/6/31 5/5/30 13/27/27
f 1/1/26 6/6/31 13/27/27
s 2
f 7/25/32 8/24/33 14/28/34
f 8/24/33 9/23/35 14/28/34
f 9/23/35 10/22/36 14/28/34
f 10/22/36 11/21/37 14/28/34
f 11/21/37 12/26/38 14/28/34
f 12/26/38 7/25/32 14/28/34
s 3
f 26/29/39 23/30/40 31/31/41 32/32/42
s 4
f 51/33/43 52/34/44 37/35/45 38/36/46
s 5
f 24/37/47 25/38/48 33/39/49 34/40/50
s 6
f 41/41/51 42/42/52 47/43/53 48/44/54
s 7
f 39/45/55 40/46/56 49/47/57 50/48/58
s 8
f 54/49/59 45/50/60 44/51/61 35/52/62
s 6
f 42/42/52 43/53/63 46/54/64 47/43/53
s 5
f 28/55/65 29/56/66 25/38/48 24/37/47
s 4
f 52/34/44 53/57/67 36/58/68 37/35/45
s 3
f 30/59/69 27/60/70 23/30/40 26/29/39
s 6
f 45/61/71 46/54/64 43/53/63 44/62/72
s 5
f 19/63/73 29/56/66 28/55/65 21/64/74
s 4
f 35/65/75 36/58/68 53/57/67 54/66/76
s 3
f 15/67/77 27/60/70 30/59/69 17/68/78
f 32/32/42 31/31/41 16/69/79 18/70/80
s 4
f 50/71/81 51/33/43 38/36/46 39/72/82
s 5
f 34/40/50 33/39/49 20/73/83 22/74/84
s 6
f 40/75/85 41/41/51 48/44/54 49/76/86
s 4
f 17/68/87 30/59/88 36/58/68 35/65/75
f 37/35/45 36/58/68 30/59/88 26/29/89
f 38/36/46 37/35/45 26/29/89 32/32/90
f 39/72/82 38/36/46 32/32/90 18/70/91
s 7
f 16/69/92 40/46/56 39/45/55 18/70/93
s 6
f 31/77/94 41/41/51 40/75/85 16/78/95
f 23/79/96 42/42/52 41/41/51 31/77/94
f 27/80/97 43/53/63 42/42/52 23/79/96
f 44/62/72 43/53/63 27/80/97 15/81/98
s 8
f 35/52/62 44/51/61 15/67/99 17/68/100
s 6
f 21/64/101 28/55/102 46/54/64 45/61/71
f 47/43/53 46/54/64 28/55/102 24/37/103
f 48/44/54 47/43/53 24/37/103 34/40/104
f 49/76/86 48/44/54 34/40/104 22/74/105
s 7
f 50/48/58 49/47/57 22/82/106 20/83/107
s 4
f 33/39/108 51/33/43 50/71/81 20/73/109
f 25/38/110 52/34/44 51/33/43 33/39/108
f 29/56/111 53/57/67 52/34/44 25/38/110
f 54/66/76 53/57/67 29/56/111 19/63/112
s 8
f 21/84/113 45/50/60 54/49/59 19/85/114
s 9
f 67/86/115 68/87/116 66/88/117 63/89/118
s 10
f 72/90/119 73/91/120 69/92/121 65/93/122
s 11
f 69/92/123 70/94/124 64/95/125 65/93/126
s 10
f 64/95/127 70/94/128 76/96/129 77/97/130
s 13
f 74/98/131 75/99/132 62/100/133 60/101/134
s 14
f 61/102/135 78/103/136 71/104/137 59/105/138
s 10
f 61/106/139 64/95/127 77/97/130 78/107/140
s 11
f 59/108/141 65/93/126 64/95/125 61/106/142
s 10
f 71/109/143 72/90/119 65/93/122 59/108/144
s 9
f 55/110/145 63/89/118 66/88/117 57/111/146
f 68/87/116 67/86/115 56/112/147 58/113/148
s 10
f 69/92/121 73/91/120 74/114/149 60/115/150
s 11
f 70/94/124 69/92/123 60/115/151 62/116/152
s 10
f 75/117/153 76/96/129 70/94/128 62/116/154
f 79/118/155 80/119/156 72/90/119 71/109/143
f 74/114/149 73/91/120 81/120/157 82/121/158
s 13
f 82/122/159 83/123/160 75/99/132 74/98/131
s 10
f 83/124/161 84/125/162 76/96/129 75/117/153
f 78/107/140 77/97/130 85/126/163 86/127/164
s 14
f 71/104/137 78/103/136 86/128/165 79/129/166
s 10
f 57/111/167 66/88/168 80/119/156 79/118/155
f 66/88/168 68/87/169 81/120/157 80/119/156
f 82/121/158 81/120/157 68/87/169 58/113/170
s 13
f 56/112/171 83/123/160 82/122/159 58/113/172
s 10
f 67/130/173 84/125/162 83/124/161 56/131/174
f 84/125/162 67/130/173 63/132/175 85/126/163
f 86/127/164 85/126/163 63/132/175 55/133/176
s 14
f 79/129/166 86/128/165 55/110/177 57/111/178
s 10
f 73/134/120 72/135/119 77/136/130 76/137/129
f 81/138/157 73/139/120 76/140/129 84/141/162
f 80/142/156 81/143/157 84/144/162 85/145/163
f 72/146/119 80/147/156 85/148/163 77/149/130
s off
f 87/150/179 88/151/180 94/152/181 93/153/182
f 88/151/183 89/154/184 95/155/185 94/152/186
f 89/154/187 90/156/188 96/157/189 95/155/190
f 90/156/191 91/158/192 97/159/193 96/157/194
f 91/158/195 92/160/196 98/161/197 97/159/198
f 92/160/199 87/162/200 93/163/201 98/161/202
s 15
f 88/164/203 87/165/204 99/166/205
f 89/167/206 88/164/203 99/166/205
f 90/168/207 89/167/206 99/166/205
f 91/169/208 90/168/207 99/166/205
f 92/170/209 91/169/208 99/166/205
f 87/165/204 92/170/209 99/166/205
s 16
f 93/171/210 94/172/211 100/173/212
f 94/172/211 95/174/213 100/173/212
f 95/174/213 96/175/214 100/173/212
f 96/175/214 97/176/215 100/173/212
f 97/176/215 98/177/216 100/173/212
f 98/177/216 93/171/210 100/173/212
s off
f 101/178/217 102/179/218 108/180/219 107/181/220
f 102/179/221 103/182/222 109/183/223 108/180/224
f 103/182/225 104/184/226 110/185/227 109/183/228
f 104/184/229 105/186/230 111/187/231 110/185/232
f 105/186/233 106/188/234 112/189/235 111/187/236
f 106/188/237 101/190/238 107/191/239 112/189/240
s 17
f 102/192/241 101/193/242 113/194/243
f 103/195/244 102/192/241 113/194/243
f 104/196/245 103/195/244 113/194/243
f 105/197/246 104/196/245 113/194/243
f 106/198/247 105/197/246 113/194/243
f 101/193/242 106/198/247 113/194/243
s 18
f 107/199/248 108/200/249 114/201/250
f 108/200/249 109/202/251 114/201/250
f 109/202/251 110/203/252 114/201/250
f 110/203/252 111/204/253 114/201/250
f 111/204/253 112/205/254 114/201/250
f 112/205/254 107/199/248 114/201/250
s off
f 115/206/255 116/207/256 122/208/257 121/209/258
f 116/207/259 117/210/260 123/211/261 122/208/262
f 117/210/263 118/212/264 124/213/265 123/211/266
f 118/212/267 119/214/268 125/215/269 124/213/270
f 119/214/271 120/216/272 126/217/273 125/215/274
f 120/216/275 115/218/276 121/219/277 126/217/278
s 19
f 116/220/279 115/221/280 127/222/281
f 117/223/282 116/220/279 127/222/281
f 118/224/283 117/223/282 127/222/281
f 119/225/284 118/224/283 127/222/281
f 120/226/285 119/225/284 127/222/281
f 115/221/280 120/226/285 127/222/281
s 20
f 121/227/286 122/228/287 128/229/288
f 122/228/287 123/230/289 128/229/288
f 123/230/289 124/231/290 128/229/288
f 124/231/290 125/232/291 128/229/288
f 125/232/291 126/233/292 128/229/288
f 126/233/292 121/227/286 128/229/288
