# Blender v2.75 (sub 0) OBJ File: 'Crate.blend'
# www.blender.org
mtllib Crate.mtl
o Crate_Cube
v 0.500000 0.008535 -1.000000
v 0.500000 0.008535 1.000000
v -0.500000 0.008535 1.000000
v -0.500000 0.008535 -1.000000
v 0.500000 0.599311 -0.999999
v 0.500000 0.599311 1.000001
v -0.500000 0.599311 1.000000
v -0.500000 0.599311 -1.000000
v 0.450000 0.599311 -0.954000
v 0.450000 0.599311 0.954001
v -0.450000 0.599311 -0.954000
v -0.450000 0.599311 0.954000
v 0.450000 0.052843 -0.954000
v 0.450000 0.052843 0.954001
v -0.450000 0.052843 -0.954000
v -0.450000 0.052843 0.954000
vt 0.225225 0.000000
vt 0.225225 0.500000
vt 0.000000 0.500000
vt 0.000000 0.000000
vt 0.450450 0.500000
vt 0.236486 0.488500
vt 0.439189 0.488500
vt 0.833333 0.500000
vt 0.653153 0.500000
vt 0.653153 0.000000
vt 0.833333 0.000000
vt 0.833333 0.750000
vt 0.653153 0.750000
vt 0.630631 0.977000
vt 0.450450 0.977000
vt 0.450450 0.477000
vt 0.630631 0.477000
vt 0.833333 1.000000
vt 0.653153 1.000000
vt 1.000000 0.000000
vt 1.000000 0.225000
vt 0.833333 0.225000
vt 0.450450 0.000000
vt 0.439189 0.011500
vt 0.236487 0.011500
vt 0.653153 0.477000
vt 0.833333 0.450000
vt 1.000000 0.450000
vt 0.166667 0.977000
vt 0.166667 0.500000
vt 0.333333 0.500000
vt 0.333333 0.977000
vt 0.000000 0.977000
vn 0.000000 -1.000000 0.000000
vn 0.000000 1.000000 0.000000
vn 1.000000 0.000000 0.000000
vn -0.000000 -0.000000 1.000000
vn -1.000000 -0.000000 -0.000000
vn 0.000000 0.000000 -1.000000
usemtl Crate
s off
f 1/1/1 2/2/1 3/3/1 4/4/1
f 5/5/2 8/2/2 11/6/2 9/7/2
f 1/8/3 5/9/3 6/10/3 2/11/3
f 2/9/4 6/8/4 7/12/4 3/13/4
f 3/14/5 7/15/5 8/16/5 4/17/5
f 5/13/6 1/12/6 4/18/6 8/19/6
f 9/20/4 11/21/4 15/22/4 13/11/4
f 7/1/2 6/23/2 10/24/2 12/25/2
f 8/2/2 7/1/2 12/25/2 11/6/2
f 6/23/2 5/5/2 9/7/2 10/24/2
f 13/26/2 15/16/2 16/23/2 14/10/2
f 12/27/6 10/22/6 14/21/6 16/28/6
f 11/29/3 12/30/3 16/31/3 15/32/3
f 10/33/5 9/3/5 13/30/5 14/29/5
